<svg width="508" height="105" viewBox="0 0 508 105" fill="none" xmlns="http://www.w3.org/2000/svg">
<path d="M1.06299 0.209625L507.563 0.209595V104.21C507.563 104.21 505.467 104.21 502.906 104.21C500.344 104.21 498.248 104.21 498.248 104.21L1.06299 104.21V0.209625Z" fill="black"/>
<path d="M0 64.2404V104.21L7.62939e-06 0H18.2571C25.7052 0 32.2451 1.36247 37.8766 4.0874C43.5536 6.81234 47.9135 10.6954 50.9563 15.7365C53.9991 20.7322 55.5206 26.4319 55.5206 32.8355C55.5206 42.5544 52.1825 50.2296 45.5064 55.8612C38.8758 61.4473 29.6791 64.2404 17.9165 64.2404H0ZM0 47.6864H18.2571C23.6615 47.6864 27.7716 46.4147 30.5874 43.8715C33.4486 41.3282 34.8792 37.6949 34.8792 32.9717C34.8792 28.1122 33.4486 24.1838 30.5874 21.1864C27.7262 18.1889 23.7751 16.6448 18.7339 16.554H0V47.6864Z" fill="white"/>
<path d="M112.472 97.3536C110.35 99.9314 107.922 102.328 105.145 104.21C101.063 104.21 97.3988 104.21 92.563 104.21C87.6438 104.21 85.063 104.21 79.7961 104.21C77.6427 102.788 75.7637 101.112 74.1864 99.3973C70.0536 94.8557 67.9417 88.2023 67.8509 79.4371V31.1376H87.5386V78.7559C87.5386 86.4311 91.0356 90.2687 98.0296 90.2687C104.706 90.2687 109.293 87.9525 111.791 83.3201V31.1376H131.546L131.063 104.21H113.063L112.472 97.3536Z" fill="white"/>
<path d="M167.175 104.21H147.419V31.1376H167.175V104.21Z" fill="white"/>
<path d="M204.234 104.21H184.478V0.209629H204.234V104.21Z" fill="white"/>
<path d="M218.063 68.0361C218.063 60.7242 219.471 54.2071 222.287 48.4847C225.102 42.7623 229.144 38.3343 234.413 35.2006C239.726 32.067 245.88 30.5001 252.874 30.5001C262.82 30.5001 270.927 33.543 277.194 39.6287C283.507 45.7143 287.027 53.98 287.753 64.4256L287.889 69.4667C287.889 80.7752 284.733 89.8583 278.42 96.716C275.301 100.083 271.789 102.562 267.752 104.21C263.063 104.21 259.438 104.21 254.063 104.21C248.688 104.21 243.563 104.21 238.794 104.21C234.473 102.562 230.674 100.083 227.532 96.716C221.219 89.9037 218.063 80.6389 218.063 68.9217V68.0361ZM237.751 69.4667C237.751 76.4607 239.068 81.8197 241.702 85.5438C244.336 89.2225 248.105 91.0618 253.01 91.0618C257.779 91.0618 261.503 89.2452 264.183 85.6119C266.862 81.9333 268.202 76.0746 268.202 68.0361C268.202 61.1783 266.862 55.8647 264.183 52.0952C261.503 48.3257 257.734 46.441 252.874 46.441C248.06 46.441 244.336 48.3257 241.702 52.0952C239.068 55.8193 237.751 61.6098 237.751 69.4667Z" fill="white"/>
<path d="M320.18 104.21H300.424V0.209629H320.18V104.21Z" fill="white"/>
<path d="M357.319 104.21H337.563V30.5001H357.319V104.21Z" fill="white"/>
<path d="M401.162 80.1621L414.855 30.5001H435.428L410.563 104.21H391.761L366.896 30.5001H387.469L401.162 80.1621Z" fill="white"/>
<path d="M474.897 104.21C469.668 104.21 468.643 104.21 462.389 104.21C457.958 101.377 454.23 99.1208 450.713 95.6981C443.946 89.0674 440.563 80.234 440.563 69.1981V67.2906C440.563 59.8879 441.994 53.2799 444.855 47.4667C447.716 41.6081 451.758 37.112 456.981 33.9783C462.249 30.7992 468.244 29.2096 474.965 29.2096C485.048 29.2096 492.973 32.3887 498.74 38.7469C504.554 45.1051 507.563 53.9723 507.563 65.6441V73.8304H460.523C461.159 78.6445 463.066 82.5048 466.246 85.4114C469.47 88.318 473.535 89.7713 478.44 89.7713C486.024 89.7713 493.697 86.3077 497.967 80.8125L507.64 91.6441C504.688 95.8223 498.945 99.8082 493.904 102.17C492.1 102.998 489.936 102.927 487.897 104.21C483.847 104.373 478.835 104.21 474.897 104.21ZM474.897 45.1505C470.991 45.1505 467.812 46.4676 465.36 49.1017C462.953 51.7358 461.409 55.5053 460.728 60.4102H488.113V58.8433C488.022 54.4834 486.842 51.1227 484.571 48.7611C482.3 46.354 479.075 45.1505 474.897 45.1505Z" fill="white"/>
</svg>
